<?xml version="1.0" encoding="UTF-8"?>
<svg id="_레이어_1" data-name="레이어 1" xmlns="http://www.w3.org/2000/svg" xmlns:xlink="http://www.w3.org/1999/xlink" viewBox="0 0 829 498">
  <defs>
    <style>
      .cls-1 {
        fill: none;
      }

      .cls-2 {
        fill: #6a994b;
      }

      .cls-3 {
        clip-path: url(#clippath);
      }
    </style>
    <clipPath id="clippath">
      <rect class="cls-1" width="829" height="498"/>
    </clipPath>
  </defs>
  <g class="cls-3">
    <path class="cls-2" d="M830.27,488.27c-2-9.39-8.02-17.41-13.46-25.19-.13.95-.26,1.53-.39.75-.16,2.07-.31.38-.47-1.97-.44-.6-.88-1.2-1.34-1.79-.24,2.89-.48,6.37-.72,2.73-.88,2.11-1.79-14.31-2.73.93-.47-1.17-.95.45-1.44.3-.49,4.32-.98-4.17-1.48-1.75-.5,10.64-1.01,7.09-1.53,3.67-.52,9.28-1.04,1.9-1.58,1.21-.53,1.22-1.07-1.96-1.62-.46-.55-10.23-1.1,3.53-1.67-3.89-.38-14.83-.75,16.01-1.14-.68-.19,15.12-.38,9.41-.58,1.12-.19,4.72-.39,4.02-.58,2.65-.19,1.31-.39,10.87-.59,4.41-.2,5.69-.39,5.92-.59-6.06-.2-12.12-.4-4.19-.59,2.47-.2,3.43-.4-4.8-.6,3.95-.13-2.29-.27,1.94-.4.89-.13,1.65-.27,3.21-.4.36-.27.66-.54-.83-.82,4.62-.27,9.8-.55,9.04-.82,9.2-.28,1.06-.55.47-.83-3.08-.56-10.09-1.12,4.38-1.69-4.32-.57-3.84-1.14-.16-1.72-2.63-.29-1.02-.58-10.72-.87-4.67-.29,2.45-.59-1.82-.88-2.16-.3-10.54-.59-8.31-.89-8.07-.3-5.73-.6-2.35-.9,2.01-.48-1.66-.97-7.55-1.46-3.68-.49,1.92-.98-6.54-1.48,3.14-.5,10.59-1,4.61-1.5,4.14-.5-7.11-1.01,1.21-1.52-3.59-1.02,10.65-2.05-.8-3.1.65-1.05,1.47-2.11,1.31-3.18-.65-.54-5.31-1.08,12.26-1.62,5.04-.27.95-.54,5.84-.82,2.22-.27,1.48-.55-5.13-.82,3.35-1.1,1.49-2.21,10.17-3.33.12-.19,1.18-.37,9.68-.56,5.14-.19,1.15-.38.77-.56,2.81-.38,1.31-.76,4.06-1.13.17-.19-4.46-.38,4.03-.57-2.09-.19,5.25-.38.33-.57-6.67-.29,2.49-.57-.76-.86.39-.29,1.34-.58-3.18-.87-5.54-.29-3.24-.58-2.23-.87-3.03-.29-.51-.58-9.16-.88-1.9.02,5.28,0,2.61-.06,6.35-.05-2.64-.14-3.14-.24-1.78-.11-5.95-.24-2.21-.39,3.35-.15-.85-.32-4.56-.5-.44-.18-2.1-.37,5.05-.57-1.55-.2,8.11-.4-6.05-.6-10.8-.2.4-.4-2.03-.59-3.73s-.4-2.66-.6.66c-.4,4.32-.8-3.88-1.2,1.87-.8,4.84-1.61-3.2-2.42-3.02-.81,13.64-1.63-7.12-2.45,3.07-.41,9.41-.82-.9-1.24,6.44-.41.69-.83-11.36-1.24-4.17.27.7.31,12.43.17,5.98-.15,11.48-.48,16.85-.94,4.08-.46-9.16-1.06-6.12-1.73-6.31-1.26-9.73-2.53-4.47-3.81-4.93-1.28-2.09-2.57,6.58-3.88,6.99-1.3,4.68-2.62,6.59-3.94,2.57-.66-2.48-1.33-4.64-1.99-4.62s-1.34,2.24-2.01,8.51c-1.34,7.08-2.7-10.74-4.06-.95-1.36,4.14-2.73.06-4.12-.12-1.38,12.23-2.77-.02-4.17-1.1-1.4,3.76-2.81,6.56-4.22,2.17-.94,7.47-1.89,7.99-2.85,4.12-.95,6.41-1.91-1.22-2.87,1.66-.96,7.25-1.92,7.11-2.89.14-.97-5.26-1.94.19-2.91-1.75-.98-4.54-1.95-13.73-2.94-6.12-.98,9.73-1.97-.48-2.96,1.96-.99.19-1.98-.61-2.98-.62-1,3.58-1.99,7.41-3,6.78-1-5.06-2.01,5.69-3.02,3.22-1.01-5.84-2.02.45-3.04-1.34-1.02,1.47-2.03.09-3.06-1.97-1.02-2.06-2.05-4.81-3.07-6.07-1.35,2.74-2.7,8.61-4.06-1.82-1.36,5.56-2.72-7.4-4.09,1.82-.46,4.6-.91,4.48-1.37,4.27-.46.28-.92-6.32-1.37,3.74-.92,1.43-1.84,3.5-2.76-2.07-.46-.87-.92,11.78-1.38.38-.46-4.9-.92-5.12-1.39-6.32-.69-3.12-1.39-6.01-2.08-2-.7-1.12-1.39,2.38-2.09-.28-.7,9.57-1.4-3.47-2.1.02-.7-4.31-1.4,8.02-2.1,2.58-1.41-1.57-2.81-1.37-4.23.33-1.41,10.65-2.83,3.24-4.25-.65-.95-10.74-1.9,4.33-2.85,5.07-.95,23.95-1.9-5.58-2.86-5.22-.95-10.51-1.91.76-2.87,3.03-.96-13.56-1.92-13.17-2.88-.69-.96,9-1.92-3.48-2.89-1.91-.96-8.5-1.93,9.83-2.89-.28-.97-6.76-1.93-5.75-2.9,1.7-.97-7.52-1.94,3.61-2.91-.04-.97-.49-1.94-2.99-2.92-5.45-.97-3.93-1.95-6.59-2.93-5.19-.98-4.77-1.95-5.89-2.93-.49-.98,4.32-1.96-8.8-2.94.94-1.96,2.87-3.93,6.83-5.9,1.82-1.97,11.63-3.95-4.49-5.93-.42-1.98,4.01-3.96-8.23-5.95-1.4-.99,6.99-1.99,6.53-2.98,4.81-.99-1.72-1.99-4.7-2.99-2.75-1,3.71-1.99.29-2.99-3.77-1-.59-2-8.45-2.99-2.31-1-8.32-2,5.7-3,.98-1,6.3-2,2.25-3,3.05-.46,1.3-.92,6.77-1.38,5.8-.46-3.92-.92,3.82-1.38,2.54-.92-2.38-1.84-.06-2.76-3.01-.92-4.09-1.84-3.94-2.76-4.62-1.38-.4-2.76-1.99-4.14-.63-1.38,3.21-2.76,10.19-4.15-.07-.69-1.97-1.38-2.28-2.07,6-.69,12.67-1.38.55-2.07,6.42-.69-2.33-1.38-.21-2.08-.76-.69-6.87-1.38-1.66-2.08-4.34-.69,2.62-1.38-.09-2.08-2.5-.69,1.47-1.38,6.57-2.08,1-.69,5.71-1.38.56-2.08.75-.69,4.93-1.38-3.38-2.08,2.15-.69-.34-1.38-3.17-2.08-4.48-.69-1.31-1.38-1.1-2.08,4.63-1.38,5.75-2.77,2.45-4.15,1.83-1.38-.21-2.77,9.39-4.15.09-.69-6.28-1.38-5.33-2.07-3.55-.69-5.44-1.38-.78-2.07,1.47-.69,7.64-1.38-5.01-2.07-4.05-.69.56-1.38,3.62-2.07,5.55-.69,6.45-1.38-5.02-2.07-1.07-.69,10.07-1.38,5.95-2.07,1.26-.69,13.15-1.38,2.43-2.07,4.56-.69,14.42-1.38-9.06-2.07-5.21-.69,6.73-1.38-16.83-2.07,2.07-.69-8.71-1.38-7.86-2.06-3.1-.64-6.09-1.28,9.59-1.93-.25-.64,4.06-1.28-10.81-1.92,2.75-1.28-3.81-2.56-1.32-3.84-2.49-1.28,1.52-2.56-1.23-3.84-.63-1.28,2.22-2.55,22.87-3.83.63-1.27,8.15-2.55-6.17-3.82-1.31-1.27-3.35-2.54-2.73-3.81,1.31-1.27.22-2.54.72-3.8-.64-1.27.07-2.53.35-3.79.64-1.26-.9-2.52,1.78-3.78,2.86-1.26-3.63-2.52,5.21-3.77.89-1.26-7.68-2.51-2.77-3.76-.82-1.25-3.68-2.5-6.64-3.75,1.11-1.25-5.13-2.49-2.59-3.73-.71-1.24-7.27-2.48,10.28-3.72-1.02-1.24,8.21-2.47-7.19-3.7.26-1.23.91-2.46-.59-3.69-2.57-1.23-6.35-2.45-.37-3.67-1.36-1.22.09-2.44-5.6-3.66-4.79-1.22-4.67-2.43.12-3.64-2.1-1.21,5.35-2.42,4.65-3.62.27-.6-6.17-1.2-5.3-1.8-.78-.6-3.73-1.2-.58-1.8-3.04-.6,3.38-1.2-.89-1.8.05-.6.19-1.19,1.35-1.79,5.92-.6-1.51-1.19,3.95-1.79,3.92-.59.15-1.19-.22-1.78.81-1.19-1.09-2.37-3.19-3.55,1.08-1.18.08-2.35.65-3.53-5.77-1.17-14.44-2.34-8.81-3.5-.95-1.16-.63-2.33,1.84-3.48-2.63-1.16,3.93-2.31-1.88-3.46-.29-1.15-8.33-2.29-11.1-3.44-3.09-1.14-7.47-2.28-5.87-3.41-3.71-1.13-3.21-2.26,9.76-3.39,1.86-1.13,13.58-2.25-.14-3.36,5.88-1.12-7.21-2.23,1.64-3.34,2.68-1.11-9.66-2.21,12.07-3.31-4.39-1.1,5.82-2.19-1.19-3.28-1.95-1.09,5.68-2.18,6.8-3.26,3.66-.18.9-.36,1.63-.53,2.22.27,3.64-1.04,13.77-2.27,22.16-1.23-8.39-2.54-18.52-2.27-22.16-.18-.59-.36-1.32-.53-2.22-1.08,3.14-2.17,2.02-3.26-3.66-1.09.76-2.19,7.77-3.28,1.95-1.1,16.46-2.2-5.26-3.31,4.39-1.11-1.04-2.22-9.89-3.34-2.68-1.12-6.02-2.24,7.7-3.36-5.88-1.13,7.9-2.25-5.07-3.39-1.86-1.13-2.16-2.27-3.77-3.41,3.71-1.14-8-2.29-5.24-3.44,3.09-1.15-1.6-2.3,4.22-3.46.29-1.16,4.47-2.32,2-3.48,2.63-1.16-7.86-2.33-13.49-3.5.95-1.17,6.42-2.35,5.85-3.53,5.77-1.18-4.27-2.36-2.17-3.55-1.08-.59-1.02-1.19-.65-1.78-.81-.59.03-1.19-5.43-1.79-3.92-.6-4.57-1.19-5.74-1.79-5.92-.6-.94-1.2,3.32-1.8-.05-.6,2.46-1.2-.69-1.8,3.04-.6-4.53-1.2-5.4-1.8.78-1.2,4.38-2.41,5.08-3.62-.27-1.21,2.22-2.42-2.57-3.64,2.1-1.22-.82-2.44,4.88-3.66,4.79-1.22.98-2.45-5-3.67,1.36-1.23,1.97-2.46,3.48-3.69,2.57-1.23-7.46-2.47,7.94-3.7-.26-1.24,11.3-2.48-6.25-3.72,1.02-1.24-1.88-2.49-4.42-3.73.71-1.25-7.75-2.49-4.79-3.75-1.11-1.25-1.94-2.5-6.86-3.76.82-1.25,4.32-2.51-4.51-3.77-.89-1.26-1.08-2.52-3.76-3.78-2.86-1.26-.3-2.53-.58-3.79-.64-1.27,1.37-2.53.86-3.8.64-1.27-4.04-2.54-4.66-3.81-1.31-1.27-4.86-2.54,9.46-3.82,1.31-1.27,22.24-2.55,1.59-3.83-.63-1.28-.6-2.56,2.16-3.84.63-1.28,1.18-2.56-1.32-3.84,2.49-.64-13.56-1.28,1.32-1.92-2.75-.64,9.84-1.28-5.83-1.93.25-.69-4.76-1.38-5.61-2.06,3.1-.69-18.9-1.38,4.66-2.07-2.07-.69-3.85-1.38,19.63-2.07,5.21-.69-2.13-1.38,8.59-2.07-4.56-.69,4.69-1.38,8.81-2.07-1.26-.69-3.96-1.38,7.52-2.07,1.07-.69-1.92-1.38-4.99-2.07-5.55-.69-.96-1.38,11.69-2.07,4.05-.69-2.25-1.38-6.91-2.07-1.47-.69-1.78-1.38-2.73-2.07,3.55-1.38,9.3-2.77-.29-4.15-.09-1.38.62-2.77,3.91-4.15-1.83-.69-5.73-1.38-5.94-2.08-4.63-.69,1.31-1.38,4.14-2.08,4.48-.69-5.53-1.38,2.78-2.08-2.15-.69-.18-1.38,4.96-2.08-.75-.69,5.57-1.38.47-2.08-1-.69,2.41-1.38,5.12-2.08,2.5-.69,2.69-1.38-2.52-2.08,4.34-.69.55-1.38-1.57-2.08.76-.69-5.86-1.38,6.25-2.07-6.42-.69-8.27-1.38-7.97-2.07-6-1.38,10.26-2.76,3.28-4.15.07-1.38-1.36-2.76.24-4.14.63-.92.68-1.84.53-2.76,4.62-.92,2.96-1.84.63-2.76,3.01-.46,1.27-.92-6.47-1.38-2.54-.46.97-.92-4.5-1.38-5.8-1-.79-2,3.25-3-3.05-1,4.72-2-9.29-3-.98-1-6.14-2,1.72-2.99,2.31-1,4.06-1.99,7.49-2.99,3.77-1-1.95-1.99,1.03-2.99,2.75-.99,1.72-1.99,2.18-2.98-4.81-1.99-6.83-3.97,5.41-5.95,1.4-1.98-4.07-3.95,12.05-5.93.42-1.97,5.01-3.94,1.05-5.9-1.82-.98-9.74-1.96,3.38-2.94-.94-.98-5.4-1.96-4.28-2.93.49-.98-1.39-1.95,1.26-2.93,5.19-.97,2.46-1.95,4.96-2.92,5.45-.97,3.65-1.94-7.48-2.91.04-.97-7.45-1.94-8.46-2.9-1.7-.97,10.11-1.93-8.21-2.89.28-.96-1.57-1.93,10.91-2.89,1.91-.96-12.48-1.92-12.87-2.88.69-.96-2.27-1.91-13.54-2.87-3.03-.95-.36-1.91,29.18-2.86,5.22-.95-.74-1.9-15.81-2.85-5.07-1.42,3.88-2.84,11.3-4.25.65-1.41-1.7-2.82-1.9-4.23-.33-.7,5.44-1.4-6.89-2.1-2.58-.7-3.49-1.4,9.55-2.1-.02-.7,2.66-1.4-.84-2.09.28-.7-4.02-1.39-1.12-2.08,2-.46,1.19-.93,1.42-1.39,6.32-.46,11.4-.92-1.25-1.38-.38-.92,5.57-1.84,3.5-2.76,2.07-.46-10.06-.92-3.47-1.37-3.74-.46.21-.91.33-1.37-4.27-1.37-9.22-2.73,3.74-4.09-1.82-1.36,10.43-2.71,4.56-4.06,1.82-1.03,1.26-2.05,4.01-3.07,6.07-1.02,2.06-2.04,3.44-3.06,1.97-1.02,1.78-2.03-4.5-3.04,1.34-1.01,2.47-2.01-8.28-3.02-3.22-1,.64-2-3.19-3-6.78-1,0-1.99.8-2.98.62-.99-2.44-1.97,7.77-2.96-1.96-.98-7.6-1.96,1.58-2.94,6.12-.97,1.94-1.95-3.51-2.91,1.75-.97,6.97-1.93,7.12-2.89-.14-.96-2.88-1.92,4.75-2.87-1.66-.95,3.87-1.9,3.35-2.85-4.12-1.42,4.39-2.83,1.59-4.22-2.17-1.4,1.08-2.79,13.33-4.17,1.1-1.38.18-2.75,4.26-4.12.12-1.36-9.79-2.71,8.03-4.06.95-.67-6.27-1.34-8.48-2.01-8.51-.67-.02-1.33,2.14-1.99,4.62-1.32,4.02-2.64,2.11-3.94-2.57-1.3-.42-2.6-9.08-3.88-6.99-1.28.46-2.55-4.8-3.81,4.93-.68.19-1.27-2.85-1.73,6.31-.46,12.78-.79,7.4-.94-4.08-.15,6.45-.11-5.27.17-5.98-.42-7.19-.83,4.87-1.24,4.17-.41-7.34-.82,2.97-1.24-6.44-.82-10.19-1.64,10.57-2.45-3.07-.81-.18-1.62,7.87-2.42,3.02-.4-5.75-.8,2.45-1.2-1.87-.2-3.32-.4-2.36-.6-.66-.2,1.7-.4,4.12-.59,3.73-.2,4.74-.4,18.91-.6,10.8-.2,6.6-.39-.55-.57,1.55-.18-4.12-.35-.41-.5.44-.15-5.56-.28-9.3-.39-3.35-.11-1.36-.19-.86-.24,1.78-.05-3.74-.07-1.07-.06-6.35-.29-7.26-.58,1.39-.88,1.9-.29.8-.58-.21-.87,3.03-.29,2.36-.58,6.89-.87,5.54-.29-1.15-.58,2.11-.86-.39-.19,6.99-.38,11.92-.57,6.67-.19,6.12-.38-2.37-.57,2.09-.38,3.89-.76,1.14-1.13-.17-.19-2.04-.38-1.66-.56-2.81-.19,4.54-.38-3.96-.56-5.14-1.12,10.06-2.23,1.37-3.33-.12-.27-8.48-.55-1.87-.82-3.35-.27,3.62-.55-1.27-.82-2.22-.54,7.22-1.08-10.36-1.62-5.04-1.07,1.96-2.13,2.12-3.18.65-1.05-1.44-2.08,10.01-3.1-.65-.51,4.8-1.02-3.52-1.52,3.59-.5.47-1,6.45-1.5-4.14-.5-9.68-.99-1.21-1.48-3.14-.49-3.86-.98,2.03-1.46,3.68-.3-4.36-.6-7.74-.9-2.01-.3-.24-.59-2.47-.89,8.07-.3.34-.59,4.61-.88,2.16-.29-6.06-.58,3.65-.87,4.67-.58,2.48-1.15-1.21-1.72,2.63-.57,8.7-1.13-5.78-1.69,4.32-.28,3.55-.56,4.14-.83,3.08-.28-.16-.55.6-.82-9.2-.27-5.46-.55-3.96-.82-4.62-.14,2.86-.27,1.3-.4-.36-.13,1.06-.27-3.18-.4-.89-.2-8.74-.4-.52-.6-3.95-.2-6.65-.4-14.59-.59-2.47-.2,11.98-.39,11.75-.59,6.06-.2,6.46-.39-3.11-.59-4.41-.19,1.37-.39,2.07-.58-2.65-.19,8.3-.38,14-.58-1.12-.38,16.68-.76-14.15-1.14.68-.56,7.42-1.12-6.34-1.67,3.89-.55-1.5-1.09,1.69-1.62.46-.53.68-1.06,8.07-1.58-1.21-.52,3.42-1.03,6.97-1.53-3.67-.5-2.42-1,6.07-1.48,1.75-.49.15-.97-1.47-1.44-.3-.94-15.23-1.85,1.19-2.73-.93-.44,6.54-.87-9.96-1.29-4.59-.42-9.03-.84,10.99-1.24,5.61-.41,2.4-.8-8.09-1.19-2.31-.39,7.17-.77-6.97-1.14,2.82-.75,6.36-1.46-10-2.13-2.15-.68.91-1.32,2.59-1.93.61-1.21-2.19-2.29,1.88-3.21-1.98-.93-8.09-1.71-6.3-2.34,1.98-.13-1.41-.25-.49-.37.8v-.8c0,.37,0,.64,0,.85-.16,1.84-.32,4.39-.45,2.17-.11-1.02-.22.15-.31,1.27-.09-1.11-.2-2.28-.31-1.27-.14,2.22-.29-.33-.46-2.17,0-.21,0-.48,0-.85v.8c-.12-1.29-.24-2.2-.37-.8-.63-8.28-1.41-10.07-2.34-1.98-.93,3.86-2-.21-3.21,1.98-.61,1.98-1.25.3-1.93-.61-.68-7.85-1.39,8.5-2.13,2.15-.37-9.79-.75,4.34-1.14-2.82-.39-5.79-.79,4.7-1.19,2.31-.41,5.38-.82-14.65-1.24-5.61-.42-5.37-.85,11.13-1.29,4.59-.88,2.11-1.79-14.31-2.73.93-.47-1.17-.95.45-1.44.3-.49,4.32-.98-4.17-1.48-1.75-.5,10.64-1.01,7.09-1.53,3.67-.52,9.28-1.04,1.9-1.58,1.21-.53,1.22-1.07-1.96-1.62-.46-.55-10.23-1.1,3.53-1.67-3.89-.38-14.83-.75,16.01-1.14-.68-.19,15.12-.38,9.41-.58,1.12-.19,4.72-.39,4.02-.58,2.65-.19,1.31-.39,10.87-.59,4.41-.2,5.69-.39,5.92-.59-6.06-.2-12.12-.4-4.19-.59,2.47-.2,3.43-.4-4.8-.6,3.95-.13-2.29-.27,1.94-.4.89-.13,1.65-.27,3.21-.4.36-.27.66-.54-.83-.82,4.62-.27,9.8-.55,9.04-.82,9.2-.28,1.06-.55.47-.83-3.08-.56-10.09-1.12,4.38-1.69-4.32-.57-3.84-1.14-.16-1.72-2.63-.29-1.02-.58-10.72-.87-4.67-.29,2.45-.59-1.82-.88-2.16-.3-10.54-.59-8.31-.89-8.07-.3-5.73-.6-2.35-.9,2.01-.48-1.66-.97-7.55-1.46-3.68-.49,1.92-.98-6.54-1.48,3.14-.5,10.59-1,4.61-1.5,4.14-.5-7.11-1.01,1.21-1.52-3.59-1.02,10.65-2.05-.8-3.1.65-1.05,1.47-2.11,1.31-3.18-.65-.54-5.31-1.08,12.26-1.62,5.04-.27.95-.54,5.84-.82,2.22-.27,1.48-.55-5.13-.82,3.35-1.1,1.49-2.21,10.17-3.33.12-.19,1.18-.37,9.68-.56,5.14-.19,1.15-.38.77-.56,2.81-.38,1.31-.76,4.06-1.13.17-.19-4.46-.38,4.03-.57-2.09-.19,5.25-.38.33-.57-6.67-.29,2.49-.57-.76-.86.39-.29,1.34-.58-3.18-.87-5.54-.29-3.24-.58-2.23-.87-3.03-.29-.51-.58-9.16-.88-1.9.01,5.28,0,2.61-.06,6.35-.05-2.64-.14-3.14-.24-1.78-.11-5.95-.24-2.21-.39,3.35-.15-.85-.32-4.56-.5-.44-.18-2.1-.37,5.05-.57-1.55-.2,8.11-.4-6.05-.6-10.8-.2.4-.4-2.03-.59-3.73-.2-1.7-.4-2.66-.6.66-.4,4.32-.8-3.88-1.2,1.87-.8,4.84-1.61-3.2-2.42-3.02-.81,13.64-1.63-7.12-2.45,3.07-.41,9.41-.82-.9-1.24,6.44-.41.69-.83-11.36-1.24-4.17.27.7.31,12.43.17,5.98-.15,11.48-.48,16.85-.94,4.08-.46-9.16-1.06-6.12-1.73-6.31-1.26-9.73-2.53-4.47-3.81-4.93-1.28-2.09-2.57,6.58-3.88,6.99-1.3,4.68-2.62,6.59-3.94,2.57-.66-2.48-1.33-4.64-1.99-4.62-.67.02-1.34,2.24-2.01,8.51-1.34,7.08-2.7-10.74-4.06-.95-1.36,4.14-2.73.06-4.12-.12-1.38,12.23-2.77-.02-4.17-1.1-1.4,3.76-2.81,6.56-4.22,2.17-.94,7.47-1.89,7.99-2.85,4.12-.95,6.41-1.91-1.22-2.87,1.66-.96,7.25-1.92,7.11-2.89.14-.97-5.26-1.94.19-2.91-1.75-.97-4.54-1.95-13.73-2.94-6.12-.98,9.73-1.97-.48-2.96,1.96-.99.19-1.98-.61-2.98-.62-1,3.58-2,7.41-3,6.78-1-5.06-2.01,5.69-3.02,3.22-1.01-5.84-2.02.45-3.04-1.34-1.02,1.47-2.03.09-3.06-1.97-1.02-2.06-2.05-4.81-3.07-6.07-1.35,2.74-2.7,8.61-4.06-1.82-1.36,5.56-2.72-7.4-4.09,1.82-.46,4.6-.91,4.48-1.37,4.27-.46.28-.92-6.32-1.37,3.74-.92,1.43-1.84,3.5-2.76-2.07-.46-.87-.92,11.78-1.38.38-.46-4.9-.92-5.12-1.39-6.32-.69-3.12-1.39-6.01-2.08-2-.7-1.12-1.39,2.38-2.09-.28-.7,9.57-1.4-3.47-2.1.02-.7-4.31-1.4,8.02-2.1,2.58-.32-.36-.64-.61-.96-.79-4.53,10.05-10.45,19.35-16.19,28.75,14.09.13,28.18.18,42.29-.05,7.13-.12,14.26-.21,21.39-.27,13.86-.12,27.73-.14,41.59-.08,11.59.05,23.17.16,34.76.32,11.05.15,21.37-.74,32.51.18,1.95.16,14.77-1.03,19.26-.83,0,.17,0,.27,0,.29.08-.1.35-.18.77-.23.42.05.69.12.77.23,0-.02,0-.12,0-.29,4.5-.2,17.31.99,19.26.83,11.14-.92,21.46-.03,32.51-.18,11.58-.16,23.17-.27,34.76-.32,13.86-.06,27.73-.04,41.59.08,7.13.06,14.26.15,21.39.27,31.39.52,62.65-.37,94.01-.37l207.4.53s0,0,0,0h1.96s1.96,0,1.96,0c0,0,0,0,0,0l207.4-.53c31.36,0,62.62.89,94.01.37,7.13-.12,14.26-.21,21.39-.27,13.86-.12,27.73-.14,41.59-.08,11.59.05,23.17.16,34.76.32,11.05.15,21.37-.74,32.51.18,2.32.19,20.07-1.54,20.8-.54,0-.09,0-2.34,0-5.67v-1.15s0-.03,0-.16c0,0,.49-1.66,0-3.93Z"/>
  </g>
</svg>