<?xml version="1.0" encoding="UTF-8"?>
<svg id="_레이어_1" data-name="레이어 1" xmlns="http://www.w3.org/2000/svg" xmlns:xlink="http://www.w3.org/1999/xlink" viewBox="0 0 829 498">
  <defs>
    <style>
      .cls-1 {
        fill: none;
      }

      .cls-2 {
        fill: #b4d79f;
      }

      .cls-3 {
        fill: #95b783;
      }

      .cls-4 {
        fill: #9fc68b;
      }

      .cls-5 {
        clip-path: url(#clippath);
      }
    </style>
    <clipPath id="clippath">
      <rect class="cls-1" width="829" height="498"/>
    </clipPath>
  </defs>
  <g class="cls-5">
    <g>
      <path class="cls-3" d="M171.65,493.72s106.05-127.31,203.97-244.86c1.46-1.75,2.92-3.51,4.38-5.26,26.25-20.32,50.14-42.5,58.67-76.63,1.71-2.56,3.63-4.91,5.65-7.03,2.02-2.12,4.15-4.02,6.27-5.69,1.81-1.85,3.56-3.79,5.2-5.81,3.28-4.05,6.11-8.46,8.19-13.48.02-.05.04-.09.06-.13,1.19-2.2,2.41-4.4,3.71-6.57,1.31-2.2,2.7-4.37,4.19-6.5,1.71-2.56,3.48-5,5.3-7.35,8.38-10.23,10.37-23.78,17.71-33.44,1.47-1.94,3.16-3.72,5.15-5.28,3.69-2.84,7.58-5.78,11.65-8.43,2.04-1.33,4.12-2.58,6.26-3.72,9.6-5.71,18.5-7.32,26.69-6.07,2.74.42,5.39,1.15,7.98,2.15,19.07,9.25,37.84,22.05,44.67,41.67,3.41,11.09,9.38,20.48,14.66,30.78.88,1.66,1.69,3.35,2.4,5.05,4.55,10.24,9.1,20.48,14.44,30.11,1.33,2.41,2.72,4.78,4.17,7.11,28.32,45.53,53.06,90.75,86.33,134.26,23.03,29.01,41.8,57.16,58.87,89.58,6.83,13.65,9.38,29.86,16.57,44.49,1.11,1.73,2.23,3.42,3.32,5.08,19.72,29.79,32.14,48.55,32.14,48.55l-658.61-2.56Z"/>
      <path class="cls-4" d="M812.46,469.39s-4.58-5.28-12.69-14.22c-2.03-2.24-4.28-4.7-6.72-7.37-1.73-2.29-3.45-4.57-5.16-6.86-38.67-61.54-99.24-103.35-156.68-144.96-2.08-1.35-4.16-2.69-6.24-4.04-2.07-1.35-4.14-2.71-6.2-4.08-1.78-1.26-3.57-2.49-5.35-3.71-33.79-23.12-66.22-39.02-91.99-39.54-15.98-.32-6.81-31.67-35.59-5.85-1.37,1.23-2.76,2.48-4.18,3.75-9.72,8.93-19.1,16.61-27.61,24.73-1.64,1.47-3.3,2.95-4.98,4.44-98.74,88.21-250.35,222.05-261.22,222.05-8.77,0,94.42-128.72,190.95-246.81,1.59-1.88,3.14-3.76,4.71-5.64,19.32-18.84,48.33-30.79,50.03-62.35,0-3.41,2.56-7.68,4.74-10.22,1.5-2.15,3.09-4.24,4.81-6.24s3.55-3.93,5.55-5.74c1.92-1.8,3.99-3.5,6.23-5.1,2.12-2.55,3.61-5.52,5.05-8.52,1.44-3,2.82-6.03,4.73-8.7.04-.05.07-.1.1-.16,1.23-2.36,2.49-4.73,3.82-7.09,1.34-2.38,2.74-4.76,4.23-7.1.85-1.49,1.81-2.99,2.87-4.47,9.7-9.79,11.91-24.45,20.77-34.99,1.77-2.11,3.82-4.06,6.24-5.77,1.86-1.86,3.89-3.66,6.04-5.34s4.42-3.25,6.78-4.66c9.64-6.4,21.2-9.3,32.38-7.48,2.8.45,5.58,1.2,8.33,2.26,13.85,5.85,25.79,15.23,32.62,28.03,8.53,16.21,16.21,31.57,24.86,47.3,1.38,2.62,2.7,5.27,3.98,7.96,4.26,8.95,8.06,18.19,12.29,27.14,1.06,2.24,2.14,4.46,3.29,6.68,22.98,38.04,43.45,77.28,71.6,113.11,28.15,35.83,51.19,70.81,74.22,110.05,6.82,11.09,6.82,24.74,13.4,36.45,1.33,2.91,2.66,5.87,3.97,8.87,1.96,2.97,3.78,5.72,5.43,8.22,6.62,9.99,10.58,15.98,10.58,15.98Z"/>
      <path class="cls-2" d="M232.33,435.52c-2.05,2.57,1.65,5.75,3.88,3.33,48.86-52.85,122.84-131.71,169.42-175.92,2.22-2.11,4.37-4.13,6.46-6.07,16.21-17.52,37.54-28.61,59.41-35.9,2.73-1.3,5.38-2.7,7.9-4.19,15.14-8.93,25.68-21.11,20.56-35.44-3.26-9.12,5.8-21.36,18.25-33,2.49-2.33,5.11-4.63,7.8-6.88,4.43-4.14,9.5-7.18,14.81-9.74,1.77-.85,3.57-1.65,5.37-2.42,15.19-8.53,45.9-8.53,44.19-30.71-.85-20.48-22.18-29.86-38.38-39.24-1.71-1-3.49-1.8-5.31-2.42-9.12-3.11-19.42-1.62-27.92,3.78-2.34,1.09-4.67,2.33-6.94,3.69-4.54,2.71-8.83,5.88-12.43,9.2-2.02,1.77-3.85,3.81-5.41,6.23-6.82,11.09-5.97,24.74-14.95,33.99-1.69,2.17-3.38,4.34-5.03,6.56-3.3,4.42-6.43,8.99-9.35,13.75-1.66,2.67-3.25,5.4-4.85,8.27-1.13,2.08-2.35,4.1-3.65,6.05s-2.7,3.85-4.15,5.68c-1.45,1.69-3.07,3.27-4.74,4.82-2.17,1.46-4.02,3.08-5.64,4.82-1.62,1.74-3.01,3.61-4.23,5.57-3.13,33.34-26.17,52.11-50.47,72.33-1.72,2-3.45,4.11-5.25,6.33-44.2,55.5-149.34,187.55-149.34,187.55Z"/>
    </g>
  </g>
</svg>