<?xml version="1.0" encoding="UTF-8"?>
<svg id="_레이어_1" data-name="레이어 1" xmlns="http://www.w3.org/2000/svg" xmlns:xlink="http://www.w3.org/1999/xlink" viewBox="0 0 829 498">
  <defs>
    <style>
      .cls-1 {
        fill: #79a95f;
      }

      .cls-2 {
        fill: #78a45d;
      }

      .cls-3 {
        fill: #87b769;
      }

      .cls-4 {
        fill: none;
      }

      .cls-5 {
        fill: #a2cd83;
      }

      .cls-6 {
        clip-path: url(#clippath);
      }
    </style>
    <clipPath id="clippath">
      <rect class="cls-4" width="829" height="498"/>
    </clipPath>
  </defs>
  <g class="cls-6">
    <g id="_2" data-name="2">
      <path class="cls-1" d="M638.06,493.72H67.57c17.75-24.66,35.98-48.9,54.75-72.85,9.34-11.93,18.82-23.79,28.42-35.6,1.92-2.36,3.85-4.72,5.74-7.07,3.07-3.87,5.87-7.96,8.75-12.02,1.44-2.03,2.88-4.05,4.31-6.07,2.11-2.9,3.82-6.31,6.38-8.87,17.06-13.65,29.01-29.01,38.13-47.36,1.49-2.31,3.01-4.55,4.58-6.74,6.77-12.45,16.16-23.54,26.4-34.63,10.24-11.94,18.77-23.89,29.57-34.98,1.7-2,3.42-3.93,5.12-5.91,3.41-3.95,6.82-8.03,9.67-12.86,1.71-2.56,4.27-5.97,4.77-9.55.86-2.06,1.87-3.99,3.01-5.81,1.14-1.82,2.41-3.52,3.78-5.12,1.84-2.13,3.87-4.09,6.06-5.91,1.82-2.14,3.69-4.25,5.6-6.32,7.83-7.77,14.23-18.32,22.69-26.26,2.11-1.99,4.35-3.81,6.78-5.38,24.34-15.33,54.46-.71,72.33,20.45,1.79,2.12,3.45,4.3,5.04,6.51,19.24,19.48,25.21,46.78,42.11,68.21,2.09,2.68,4.16,5.37,6.21,8.05,16.98,17.44,22.96,39.62,38.31,59.24,11.94,14.5,28.15,24.74,36.68,41.8,5.97,12.8,13.65,24.74,21.18,36.57,1.81,2.73,3.63,5.46,5.46,8.2,21.87,32.85,44.16,66.16,68.66,100.26Z"/>
      <path class="cls-3" d="M371.12,135.48c-10.92.78-21.16,5.9-29.4,11.88-1.98,1.53-3.9,3.18-5.76,4.9-7.47,6.9-14.13,15.09-20.76,22.67-1.82,1.9-3.6,3.87-5.3,5.94-2.1,1.66-4.19,3.39-6.16,5.22-2.62,2.45-5.02,5.1-7.05,7.98-2.04,2.87-3.72,5.97-5.1,9.3-3.01,4.93-5.49,10.02-7.84,15.15-1.17,2.56-2.32,5.14-3.5,7.69-4.51,14.13-19.01,20.95-27.55,32.9-9.7,13.44-20.72,24.26-30.17,36.47-1.35,1.74-2.67,3.52-3.95,5.33-9.38,27.3-32.42,46.07-51.06,67.31-1.56,1.68-3.1,3.38-4.6,5.13-3.01,3.49-5.9,7.14-8.65,11-1.42,1.64-2.84,3.28-4.24,4.9-46.32,53.61-81.59,96.68-82.45,104.46,0,0,160.39-110.91,152.71-97.26-7.68,13.65,20.48,14.76,40.1-9.26,15.16-18.56,89.42-91.04,133.8-123.02,2.61-1.88,5.12-3.62,7.5-5.21,7.14-4.14,13.96-10.11,22.5-10.11,0,1.71,0,3.41,1.05,5.1.61,1.64,1.37,3.63,2.25,5.94,13.17,34.6,54.29,139.11,73.48,147.64,23.03,10.24,137.35,86.17,137.35,86.17,0,0-29.87-45.24-69.65-103.42-1.17-1.71-2.35-3.43-3.53-5.17-17.25-29.62-36.87-55.22-60.76-81.66-14.5-16.21-21.33-37.54-35.38-54.86-1.28-1.74-2.55-3.48-3.82-5.21-1.89-2.57-3.77-5.12-5.62-7.65-12.34-21.86-22.58-44.9-38.92-65.51-1.48-2.2-2.99-4.35-4.6-6.43-9.63-12.44-22.64-22.11-38.22-26.22-2.74-1.24-4.95-1.97-6.7-2.12Z"/>
      <path class="cls-5" d="M401.98,152.2c-14.48,12.21-28.13,24.16-42.47,36.19-1.95,1.87-3.83,3.73-5.68,5.62-1.85,1.88-3.68,3.81-5.49,5.77-1.79,1.75-3.52,3.56-5.17,5.42-1.66,1.87-3.24,3.8-4.73,5.82-1.81,1.67-3.59,3.37-5.31,5.13-8.72,10.2-18.47,17.83-27.89,26.51-1.89,1.74-3.76,3.51-5.61,5.36-8.53,9.38-16.21,18.77-26.45,26.45-12.8,9.24-26.19,14.93-36.22,25.46-2.01,2.11-3.88,4.4-5.59,6.96-4.26,29.86-26.45,50.33-46.88,69.88-1.84,1.45-3.73,2.86-5.66,4.25-3.85,2.78-7.8,5.46-11.87,8.05-1.67,1.3-3.35,2.6-5.01,3.88-23.35,18.02-44.9,34.23-44.9,34.23l6.12-8.01c9.34-11.93,18.82-23.79,28.42-35.6,1.92-2.36,3.85-4.72,5.74-7.07,3.07-3.87,5.87-7.96,8.75-12.02,1.44-2.03,2.88-4.05,4.31-6.07,2.11-2.9,3.82-6.31,6.38-8.87,18.77-13.65,29.01-29.86,39.61-49.5,2.1-2.39,4.1-4.83,6.01-7.33,17.25-22.46,27.99-48.87,45.5-71.17,1.58-2.06,3.29-4.03,5.07-5.96,5.33-5.77,11.31-11.14,16.43-17.17,1.54-1.78,3.11-3.49,4.74-5.14s3.31-3.24,5.03-4.77c2.3-2.04,4.69-3.98,7.14-5.84,1.89-2.17,3.81-4.3,5.75-6.4,1.94-2.1,3.92-4.16,5.9-6.23,8.19-8.95,14.29-20.51,24.49-27.58,2.04-1.41,4.24-2.65,6.68-3.66,17.04-7.66,34.11.02,47.69,10.51,1.56.88,3.27,1.84,5.16,2.88Z"/>
      <path class="cls-2" d="M393.47,300.06l-18.77,45.22v23.89c0,23.89-22.18,27.3-22.18,27.3l29.86,97.26h-210.72l55.45-34.13s-8.53,0,0-14.5c8.53-14.5,36.68-37.54,71.66-40.95,5.54-.54,9.4-1.34,12.06-2.37,2.72-1.05,4.18-2.35,4.85-3.86,2.82-6.36-8.04-16.57,3.56-28.74,10.87-11.41,37.99-36.31,56.26-52.89,2.42-2.19,4.68-4.24,6.73-6.1,6.78-6.13,11.23-10.11,11.23-10.11Z"/>
    </g>
  </g>
</svg>