<?xml version="1.0" encoding="UTF-8"?>
<svg id="_레이어_1" data-name="레이어 1" xmlns="http://www.w3.org/2000/svg" xmlns:xlink="http://www.w3.org/1999/xlink" viewBox="0 0 829 498">
  <defs>
    <style>
      .cls-1 {
        fill: none;
      }

      .cls-2 {
        fill: #b4d79f;
      }

      .cls-3 {
        fill: #95b783;
      }

      .cls-4 {
        fill: #9fc68b;
      }

      .cls-5 {
        clip-path: url(#clippath);
      }
    </style>
    <clipPath id="clippath">
      <rect class="cls-1" width="829" height="498"/>
    </clipPath>
  </defs>
  <g class="cls-5">
    <g>
      <path class="cls-3" d="M464.87,493.72H-265.15c15.06-24.75,30.94-49.44,47.49-74.06,1.84-2.74,3.69-5.47,5.53-8.19,8.4-13.3,19.49-25.24,26.32-39.74,6.82-13.65,12.8-28.15,23.03-40.1,40.95-46.07,76.78-92.99,114.91-139.65,2.18-2.71,4.34-5.41,6.5-8.09,2.16-2.68,4.32-5.36,6.48-8.04,11.17-12.29,16.29-27.64,25.67-41.29,15.34-21.02,34.09-37.13,50.45-55,2.05-2.23,4.05-4.5,6.01-6.8,4.56-6.54,9.13-13.2,13.88-19.76,1.58-2.19,3.18-4.37,4.81-6.54,2.78-3.12,5.98-7.52,9.44-12.33,1.73-2.4,3.53-4.91,5.38-7.41,4.07-4.95,8.02-11.69,12.77-16.87,1.58-1.73,3.26-3.28,5.05-4.54,15.91-6.4,34.67-.43,50.03,7.25,2.84,1.56,5.26,3.41,7.33,5.49,2.07,2.07,3.78,4.37,5.23,6.84,3.4,7.05,7.16,13.91,10.97,20.75,1.27,2.28,2.54,4.56,3.81,6.84,3.96,6.39,8.31,12.31,12.29,18.32.99,1.5,1.97,3.01,2.91,4.54,20.59,20.84,26.57,49.85,39.64,74.4,1.27,1.72,2.56,3.44,3.87,5.17,1.3,1.72,2.61,3.44,3.92,5.17,2.03,2.7,3.97,5.28,5.9,7.87,2.27,2.04,4.51,4.08,6.7,6.13,6.09,5.81,11.27,12.33,15.73,19.36,1.49,2.34,2.89,4.74,4.16,7.18,1.26,3.07,2.97,7.34,2.97,10.75-.14,1.99-.54,4.08-1.07,6.2s-1.17,4.29-1.81,6.44c-14.19,21.49,13.11,28.31,28.85,32.79,2.25.92,4.44,1.9,6.53,3.01,6.25,3.31,11.65,7.73,15.11,14.82,1.93,2.68,3.8,5.36,5.68,8.05,48.63,69.79,94.49,140.19,137.56,211.09Z"/>
      <path class="cls-4" d="M-265.12,493.63c14.89-2.53,46.67-57.76,57.43-71.1,2.16-2.68,4.37-5.42,6.61-8.19,10.16-12.76,22.95-23.85,30.63-38.36,8.53-15.36,13.65-32.42,27.3-43.51,46.07-40.1,77.63-88.73,116.23-133.93,1.44-1.78,2.88-3.56,4.31-5.34,4.3-5.32,8.56-10.61,12.78-15.84,1.34-1.66,2.68-3.31,3.99-4.96,19.59-29.24,41.3-55.33,64.49-81.16,2.11-2.35,4.23-4.69,6.33-7.05.94-3.16,2.02-6.22,3.22-9.19,1.2-2.97,2.54-5.86,3.99-8.65,2.15-4.62,4.51-9.65,7.11-14.68,1.3-2.52,2.65-5.03,4.07-7.51,1.22-2.46,2.55-4.92,3.98-7.33,1.43-2.41,2.97-4.78,4.61-7.05,13.15-20.66,43.87-32.6,61.78-12.12,1.42,1.42,2.75,2.89,3.99,4.4s2.4,3.06,3.51,4.65c5.24,7.04,11.16,13.94,16.03,21.3,1.22,1.84,2.38,3.71,3.45,5.61,2.62,4.92,5.2,9.88,7.74,14.87,1.27,2.49,2.54,4.99,3.85,7.49,20.29,21.87,28.82,50.88,41.69,77.08,1.01,1.5,1.92,2.83,2.75,3.97,3.59,4.64,5.71,7.37,5.71,7.37,0,0-2.44-.95-6.6-2.68-1.53-.78-3.27-1.72-5.19-2.77-1.92-1.05-4-2.21-6.22-3.43-19.52-17.57-45.12-19.27-70.2-19.14-2.31-.34-4.64-.68-6.87-.94-6.7-.8-12.55-.95-14.36,1.37C117.95,156.18,1.66,320.27-26.28,297.5c-10.67-8.6-91.34,124.17-120.82,172.45-2.02,3.3-7.12,1.22-6.23-2.55,4.74-20.23,12.64-43.89,20.06-64.19,3.8-10.39-9.28-18.58-16.97-10.64-5.58,5.76-10.2,10.55-12.29,12.76-21.17,22.43-43.02,44.22-65.51,65.33-10.76,10.11-22.54,20.5-37.09,22.98Z"/>
      <path class="cls-2" d="M127.19,4.24c-12.7,8.32-25.49,16-35.83,28.05-1.92,2.12-3.77,4.3-5.57,6.55-1.42,1.83-2.74,3.69-3.92,5.63-3.57,5.8-6.01,12.39-6.77,20.04-.85,2.55-1.71,5.03-2.61,7.47-1.81,4.87-3.82,9.58-6.69,13.79-1.3,1.81-2.69,3.57-4.18,5.27-22.18,23.89-40.1,48.63-57.1,76.32-2.12,2.93-4.19,5.8-6.2,8.6-6.77,9.45-12.81,18.08-17.88,25.59-1.7,2.52-3.3,4.92-4.81,7.22-20.65,35.83-43.69,69.95-73.55,99.81-21.33,22.18-42.66,39.24-61.43,64.84-12.8,17.06-30.71,27.3-42.01,45.49-1.72,2.35-3.48,4.76-5.28,7.22-16.2,22.15-35.51,48.39-57.52,67.59h-.97c15.06-24.75,30.94-49.44,47.49-74.06,1.84-2.74,3.69-5.47,5.53-8.19,8.4-13.3,19.49-25.24,26.32-39.74,6.82-13.65,12.8-28.15,23.03-40.1,40.95-46.07,76.78-92.99,114.91-139.65,2.18-2.71,4.34-5.41,6.5-8.09,2.16-2.68,4.32-5.36,6.48-8.04,11.17-12.29,16.29-27.64,25.67-41.29,15.34-21.02,34.09-37.13,50.45-55,2.05-2.23,4.05-4.5,6.01-6.8,4.56-6.8,9.13-13.48,13.88-19.97,1.58-2.17,3.18-4.31,4.8-6.44,2.78-3.1,5.9-7.32,9.27-11.89,1.69-2.29,3.44-4.66,5.24-7.03,1.69-2.05,3.44-4.26,5.25-6.49s3.69-4.48,5.66-6.63C98.29,4.88,110.23-.24,122.17,1.47c-.85,0-1.71-.85-2.22-1.17.76.32,2.79,1.46,7.24,3.94Z"/>
    </g>
  </g>
</svg>