<svg xmlns="http://www.w3.org/2000/svg" version="1.1" xmlns:xlink="http://www.w3.org/1999/xlink" width="512" height="512" x="0" y="0" viewBox="0 0 511 512" style="enable-background:new 0 0 512 512" xml:space="preserve" class=""><g><path fill="#99bf74" d="M461.824 10.125c-2.11-6.152-7.09-10.27-14.457-10.121-6.36.117-156.754 3.894-222.156 97.308-23.82 34.012-35.29 78.34-34.102 131.731l78.88 115.621c.808 0 1.628-.059 2.445-.191 56.34-9.243 132.246-32.754 173.949-92.313 65.406-93.383 17.523-236 15.441-242.035zm0 0" opacity="1" data-original="#70da40" class=""></path><path fill="#5b9464" d="M446.387 252.16c65.402-93.383 17.52-236 15.437-242.035-1.02-2.973-2.719-5.465-5.027-7.238l-212.7 303.828 25.891 37.95c.809 0 1.63-.06 2.446-.192 56.34-9.243 132.246-32.754 173.953-92.313zm0 0" opacity="1" data-original="#56c225" class=""></path><path fill="#5b9464" d="M387.41 102.004c-6.77-4.73-16.144-3.106-20.887 3.691l-65.257 93.207-8.454-47.898c-1.437-8.176-9.257-13.684-17.375-12.16-8.16 1.437-13.605 9.215-12.156 17.375l13.653 77.433-32.918 47.016c-4.743 6.785-3.102 16.129 3.691 20.89a14.9 14.9 0 0 0 8.586 2.712c4.73 0 9.39-2.227 12.305-6.403l32.906-47 77.441-13.66c8.157-1.434 13.606-9.21 12.157-17.371-1.438-8.172-9.23-13.668-17.375-12.156l-47.899 8.445 65.274-93.23c4.746-6.786 3.105-16.13-3.692-20.891zm0 0" opacity="1" data-original="#56c225" class=""></path><path fill="#276850" d="M247.71 301.559a14.904 14.904 0 0 0 8.583 2.707c4.73 0 9.39-2.227 12.305-6.399l32.91-47 77.437-13.66c8.157-1.434 13.606-9.215 12.157-17.371-1.434-8.176-9.227-13.668-17.372-12.16l-47.902 8.449 65.274-93.23c4.746-6.786 3.105-16.13-3.692-20.891zm0 0" opacity="1" data-original="#49a520" class=""></path><path fill="#cee986" d="m251.188 490.125 22.671 4.473c4.801-16.797 16.5-61.297 16.5-111.098 0-41.398-8.097-87-34.496-124.8-65.402-93.298-215.699-97.2-222-97.2-6.3.602-12.601 3.902-14.699 10.203-1.8 6-49.8 148.5 15.598 242.098 57.601 82.199 181.5 96.097 214.199 97.898zm0 0" opacity="1" data-original="#90e36a" class=""></path><path fill="#99bf74" d="M25.5 164.133c-2.887 1.699-5.215 4.199-6.336 7.57-1.8 6-49.8 148.5 15.598 242.098 57.601 82.199 181.5 96.097 214.199 97.898l2.18-21.125zm0 0" opacity="1" data-original="#70da40" class=""></path><path fill="#99bf74" d="M273.86 494.598c-1.2 3.902-2.098 6.601-2.4 7.203-2.1 6-7.8 10.199-14.401 10.199h-.297c-.602 0-3.301 0-7.801-.3l-69.3-100.298-77.4-13.8c-8.1-1.2-13.8-9-12.3-17.102 1.5-8.398 9.3-13.8 17.402-12.3l47.996 8.402L89.961 283.3c-4.797-6.598-3-15.899 3.601-20.7 6.899-4.8 16.2-3.3 21 3.598l65.399 93.301 8.402-48c1.5-8.102 9-13.5 17.399-12 8.101 1.2 13.5 9 12 17.098l-13.5 77.703zm0 0" opacity="1" data-original="#70da40" class=""></path><path fill="#5b9464" d="M93.563 262.602c-6.602 4.8-8.399 14.101-3.602 20.699l65.398 93.297-47.996-8.399c-8.101-1.5-15.902 3.903-17.402 12.301-1.5 8.102 4.2 15.898 12.3 17.098l77.4 13.8 69.3 100.301c4.5.301 7.203.301 7.8.301h.298c2.726 0 5.289-.727 7.52-1.988zm0 0" opacity="1" data-original="#56c225" class=""></path></g></svg>