<?xml version="1.0" encoding="UTF-8"?>
<svg id="_레이어_1" data-name="레이어 1" xmlns="http://www.w3.org/2000/svg" viewBox="0 0 722.26 224.78">
  <defs>
    <style>
      .cls-1 {
        fill: #1e993a;
      }

      .cls-2 {
        fill: #404041;
      }

      .cls-3 {
        fill: #0a5ca4;
      }
    </style>
  </defs>
  <g>
    <path class="cls-1" d="M162.75,2.95c1.78-.35,3.81.31,7.05,3.83l2.57.62c1.04.58,1.6,7.15,1.55,8-.64,10.42-6.94,14.72-7.97,18.85-5.46,5.71-8.83,14.33-14.05,20.34-2.46,4.94-8.07,13.37-10.54,18.1l2.24-1.26c12.46-12.14,24.42-23.15,38.85-31.92,1.4-3.63,14-8.77,14.93-13.43,3.01-.46,3.31.05,6.33-.31,2.21,1.36,9.13,1.76,10.59,4.1-.53.55.42,8.95-.09,9.82-.33,2.32-3.16,8.24-3.16,10.54-.77,2.55-2.45,7.42-3.34,9.98-1.42.9-3.06,4.35-3.06,4.35h0c.06,1.48-1.43,2.31-2.22,5.96-1.48,2.04-2.07,5.45-3.04,6.44,1.65,1.7-2.4,5.55,1.29,4.95,5.55,3.78,10.96,1.59,19.16-1.21,1.94-1.7,4.11-1.65,5.06-2.85,11.33-5.38,18.43-13.97,29.56-21.46,0,0,7-5.71,8.91-6.19.51.43.34,1.76.34,1.76,0,0-2.73,4.48-3.16,5.09l-1.62,2.52-1.67,1.48c-4.34,4.46-.99,1.09-.99,1.09.23-.01-.22.12,0,0-.37,1.02-.92.21-3.65,3.67l-.62,1.43h0s.22-.37-2.99,2.94c-.53.25-.65,1.9-1.04,2.39-.45.36-2.16,1.45-2.67,2.42-.4.36-1.93,2.13-1.93,2.13h0c-.4.38-1.32.78-1.98,1.11h0c-.42.74-.26,1.1-.7,1.31-1,1.17-.63.89-1.97,1.36,0,0,.2,1.05-.7,1.3-.36-.4-2.19,1.89-2.19,1.89,0,0-2.16,1.88-2.19,1.89,0,0-1.39,2.8-4.63,4.68-1.15,1.74-1.54,2.09-3.64,2.83l-4.7,2.52-4.23,3.06c-4.23,1.94-8.63,3.92-15.73,4.27-1.76.34-5.73-1.24-6.41-1.21-4.59.54-6.15-1.5-9.43-4.06-9.21-10.18,4.55-48.09,3.52-42.74-7.45,4.24-13.14,14.25-20.1,19.3-1.66,3.76-5.48,4.66-9.16,10.11-4.53,3.99-8.74,8.73-15.3,10.41-6.92,6.96-11.51,3.1-13.62,2.79-4.77-.48-5.74-3.79-8.14-4.51-6.23-8.54,1.25-20.78,2.95-29.77,5.19-13.15,12.49-25.74,20.06-35.96l-6.69,3.34c-7.73,5.74-18.01,8.8-31.38,26.35-4.16,5.45-4.32,4.82-8.22,10.04-1.93,1.98-1.97,4.49-5.22,9.46l-4.32,6.26-4.49,5.61c-6.8,7.09-6.78,6.26-9.83,10.67,0,0-1.13,2.24-5.06,1.35-1.28-.77-1.65-2.65-2.75-3.36-5.34-3.46-5.22-6.81-5.22-6.81-.26-.72-.13-2.16-.5-2.87-.44-1.61.66-4.92,1.54-5.51.85-1.98,1-1.86,1-1.86-.75-4.13,2.06-5.85,2.56-6.82,3.69-2.17,6.45-6.71,9.21-9.99,2.58-4.83,3.51-7.73,5.4-12.85-.37-.61,1.4-6.85-1.67-5.01-23.94,25.92-40.87,47.56-52.88,59.03-2.46,3.1-13.96,15.33-16.47,8.64-1.66-.27-16.61-8.03-6.73-24.9,7.51-12.83,20.44-28.9,31.27-38.12l20.95-15.79c1.55-2.17,9.42-5.74,10.97-6.68-2.48.54,6.34-1.46,8.74-.85,2.86-1.29,8.36,1.48,10.88.3,2.58-.09,5.99-.82,8,1.28,2.93,1.26,1.84.94,4.69,1.75,5.14-6.1,12.03-8.09,20.6-14.69.5-1.28,5.61-3.83,7.76-3.73,1.22,1.93,4.8-4.42,7.32-4.12,3.12-.57,4.14-2.61,7.35-3.7,3.24-2.25,8.88-5.21,13.23-3.64l7.63,2.51h0Z"/>
    <g>
      <polygon class="cls-2" points="94.51 113.94 87.07 113.94 87.08 157.23 94.53 157.23 94.51 113.94"/>
      <path class="cls-2" d="M74.75,117.68h2.52v6.88h-4.18c.07-1.03.06-1.64.06-1.64l.04-4.49h-19.18v3.84h12.79c.17,18.87-14.92,24.3-14.92,24.3l.85,2.13c13.59-2.57,18.14-12.63,19.66-19.4h4.88v5.55h-5.74v4.01h5.74v18.36h7.25l.13-43.27h-9.9v3.72s0,0,0,0Z"/>
    </g>
    <path class="cls-2" d="M175.46,116.85h-9.84v3.8h1.79l-.08,4.17s.33,11.7-10.43,19.09l2.23,2.24s8.63-3.17,11.85-9.84c0,0,3.23,6.78,11.17,9.78l2.01-3.13s-8.37-5.99-8.79-18.46l.08-7.64h0Z"/>
    <polygon class="cls-2" points="188.27 113.98 198.9 113.98 198.9 157.42 190.95 157.42 190.95 117.89 188.28 117.89 188.27 113.98"/>
    <g>
      <path class="cls-2" d="M140.71,133.65v-2.74h5.69v-4.03h-25.97v-1.86h25.74v-10.45h-35.39v4.25h27.47v2.08h-27.37v4.09h1.6v5.9h5.89v2.74h-11.44v3.92h43.32v-3.92h-9.55ZM126.01,130.91h7.14v2.74h-7.14v-2.74Z"/>
      <path class="cls-2" d="M128.81,138.91c-9.64,0-17.46,4.16-17.46,9.29s7.82,9.29,17.46,9.29,17.46-4.16,17.46-9.29-7.82-9.29-17.46-9.29ZM128.95,153.43c-5,0-9.52-2.47-9.55-5.22-.02-2.54,4.29-5.26,9.45-5.24,4.61.02,9.53,2.4,9.39,5.24-.14,2.96-4.61,5.21-9.29,5.22Z"/>
    </g>
    <path class="cls-3" d="M38.24,170.72l-3.87.55h-3.32l-2.35,2.46-.23,5.14s2.51,5.71,4.19,7.33c0,0-.54-.25,6.49,1.91,0,0,6.34,2.16,18.45,1.09l8.77.67,6.26-.67s12.55.17,15.11-.18l3.5-.35,3.25-.6,1.87-.06,2.21-.37h1.28s2.55-.36,2.55-.36l2.48-.12,2.29.23,1.58-.51h8.7l1.05.26,2.9-.26h2.63l2.37-.26,3.43-.26h2.53s2.23-.35,2.23-.35l3.15.09h2.9l1.92-.49,1.91-.02,3.19-.03,2.55-.66,2.55-.35,2.91.26h1.58l1.57-.63,1.92-.02h1.28s1.91-.35,1.91-.35l4.11-.56,2.6-.37,2.84-.43,2.55-.03,2.32.34,3.74-.72,2.23.3,2.55-.02,2.02-.19,2.35-.73,3.28-.43,1.91-.34,2.86-.67,1.53.02,3.64-.38,2.52-.87,2.99-.36,2.5-1.1h1.38l3.31-.82,2.76-.55,1.53.08,7.09-2.18,1.37-1.17-1.76-1.37-3.91.19-1.76-.39-2.15.19-2.15-.58h-4.5l-3.51-.19-4.92.23-5.24-.23-3.52.46-2.81-.06-1.6.33-1.38-.28-2.06.31-1.78-.51-2.77.2-1.94-.07-2.58-.19-1.56.19-.85-.58-2.11.56-1.21-.16-2.29.09-3.32-.55h-4.97l-1.33.07h-1.17l-2.15.19-2.43.38-4.15-.28-2.87.03-4.59.19-2.18-.51h-1.76l-2.93.62-2.57-.16-3.09-.07-2.15-.19h-3.12l-1.67-.1h-2.11l-1.79.58-1.58-.26-3.69-.26s-6.13-.74-10.81,0c0,0-14.65.12-20.56-.51,0,0-12.48-.9-18.97-.52,0,0-11.46.48-15.28,0,0,0-11.21-.21-11.99,1.34v-.02Z"/>
    <path class="cls-3" d="M22.53,200.63l-4.18.82-4.08.92-.76,3.25h0s-.63,3.55.65,5.61l2.64,4.62,2.38,1.08s-1.59.95,3.69,3.5c0,0,9.55,4.37,25.17,3.38,0,0,12.59,1.3,19.37.89,0,0,17.79-.46,22.06-1.16,0,0,5.52-.14,7.97-.21,0,0,10.09-1.45,13.76-1.85,1.23-.03,3.34-1.58,5.79-1.64,0,0,6.41-1.36,9.8-.85,0,0,8.24-1.7,11.03-.58,0,0,5.85.75,8.9-.23l7.05-.48,3.67-.69s5.49-1.34,7.64-1.09c0,0,5.83-.15,9.21.06,0,0,3.06-.08,6.74-.47,0,0,3.04-1.28,4.27-1.01,0,0,1.48.18,3.91-.78l4.34-.33,2.15-.06c2.14-.06.91-.33,2.14-.06.71.16,9.14-2.43,3.55-.96-1.51.4,1.66.53,1.66.53h0s1.34-1.05,2.87-1.09,1.41,0,1.41,0l3,.08,1.83-.64s1.06-.81,1.98-.84c.92-.02.85,0,.85,0l2.55-.56h2.55l3.97-.84s4.67-.06,8.32-1.05c0,0,2.73-1.26,4.27-1.01l3.67-.69,3.06-.38,2.75-.67,3.36-.38,2.14-.35,6.45-2.79,3.7-2.52.18-1.62h-2.22l-3.33-.53-2.9-.55-2.46.37-2.68.26-4.3-.19-3.68.09-4.29.11-4-.5s-14.62.31-17.18.14l-6.15-.44-3.99-.19-4.29.11-3.06.38-3.44.03h-3.29l-3.99.55-1.45.06-1.97-.41-3.78.11-7.27.46s-8.39.16-13.92,0l-6.09.36-2,.37-1.78-.22h0l-3.04-.5.09.08-3.58-.16-3.35.08-2.02.25-2.53-.25-2.53.25-3.97.45-2.75.37-1.23.03-3.25-.34-6.28-.31s-9.24-.66-15.67-.19c0,0-7.75.38-12.66.51h-3.8l-2.28-.25h-4.3l-3.54-.25s-2.63-.07-3.54.25c-.91.32-3.8,0-3.8,0l-3.04.25-3.29.25-6.08-.25-7.09.25s-8.52.67-11.9.75c0,0-7.65,1.47-10.47,1.51l-.03.02Z"/>
  </g>
  <g>
    <path class="cls-2" d="M420.67,119.81v8.66h-38.86v15.15h-10.31v-15.15h-38.76v-8.66h87.93ZM349.24,152.9h67v8.76h-77.31v-25.67h10.31v16.91ZM414.28,110.95h-75.25v-35.25h75.25v35.25ZM404.08,84.15h-54.84v18.35h54.84v-18.35Z"/>
    <path class="cls-2" d="M491.17,93.84h-59.68v-8.97h24.64v-11.13h10.41v11.13h24.64v8.97ZM466.43,148.37c11.65-.1,21.75-1.13,27.83-3.92v9.28c-5.57,2.47-16.39,3.71-28.76,3.71h-33.6v-9.07h24.33v-13.09c-12.47-1.34-20.2-7.94-20.2-17.83,0-11.24,9.9-18.25,25.46-18.25s25.46,7.01,25.46,18.25c0,10-7.83,16.6-20.51,17.94v12.99ZM461.48,127.23c10.41,0,15.77-4.23,15.77-9.79s-5.36-9.9-15.77-9.9-15.77,4.33-15.77,9.9,5.36,9.79,15.77,9.79ZM523.95,119.3h-12.16v43.4h-10.2v-88.03h10.2v34.84h12.16v9.79Z"/>
    <path class="cls-2" d="M564.25,126.92h-33.19v-8.76h17.21v-20.93h10.1v20.93h6.18c12.06,0,22.78-.83,28.86-3.4v8.76c-5.57,2.47-16.6,3.4-29.17,3.4ZM574.76,84.97h-39.48v-8.86h49.68v34.12h-10.2v-25.25ZM547.55,152.69h65.77v8.86h-76.07v-25.87h10.31v17.01ZM623.11,98.47v9.59h-12.16v33.5h-10.2v-66.9h10.2v23.81h12.16Z"/>
    <path class="cls-2" d="M663.4,121.87h-33.19v-8.35h17.21v-18.35h10.1v18.35h6.18c12.06,0,22.78-.93,28.86-3.5v8.35c-5.57,2.47-16.6,3.5-29.17,3.5ZM673.92,84.66h-39.48v-8.56h49.68v30.82h-10.2v-22.26ZM711.64,145.99c0,11.85-16.18,17.01-38.14,17.01s-38.14-5.15-38.14-17.01,16.18-17.11,38.14-17.11,38.14,5.15,38.14,17.11ZM700.92,145.99c0-6.49-11.85-9.17-27.42-9.17s-27.42,2.68-27.42,9.17,11.85,9.07,27.42,9.07,27.42-2.58,27.42-9.07ZM722.26,94.35v9.48h-12.16v24.64h-10.2v-53.81h10.2v19.69h12.16Z"/>
  </g>
</svg>