<?xml version="1.0" encoding="UTF-8"?>
<svg id="_레이어_2" data-name="레이어 2" xmlns="http://www.w3.org/2000/svg" viewBox="0 0 473.49 403.55">
  <defs>
    <style>
      .cls-1 {
        fill: #0060b0;
      }

      .cls-2 {
        fill: #10a035;
      }

      .cls-3 {
        fill: #404040;
      }
    </style>
  </defs>
  <path class="cls-2" d="M292.19,5.3c3.2-.62,6.84.56,12.66,6.87l4.62,1.11c1.87,1.04,2.87,12.84,2.78,14.37-1.15,18.71-12.46,26.43-14.31,33.85-9.8,10.26-15.86,25.72-25.23,36.52-4.42,8.87-14.49,24-18.93,32.49l4.03-2.27c22.37-21.79,43.84-41.56,69.74-57.31,2.51-6.52,25.14-15.74,26.8-24.12,5.41-.83,5.95.09,11.37-.56,3.96,2.45,16.39,3.16,19.02,7.36-.96.99.76,16.07-.17,17.63-.6,4.16-5.68,14.79-5.68,18.93-1.39,4.58-4.4,13.33-5.99,17.92-2.55,1.62-5.49,7.81-5.49,7.81h0c.1,2.65-2.57,4.15-3.98,10.7-2.65,3.67-3.72,9.79-5.45,11.56,2.97,3.05-4.3,9.96,2.32,8.89,9.96,6.79,19.68,2.86,34.4-2.18,3.48-3.05,7.37-2.96,9.08-5.11,20.34-9.66,33.08-25.08,53.07-38.53,0,0,12.56-10.25,15.99-11.11.92.77.61,3.16.61,3.16,0,0-4.9,8.04-5.68,9.13l-2.91,4.52-3,2.65c-7.8,8-1.78,1.96-1.78,1.96.41-.02-.39.21,0,0-.66,1.83-1.66.37-6.56,6.58l-1.12,2.56h0s.39-.66-5.37,5.27c-.95.45-1.16,3.42-1.87,4.29-.8.64-3.88,2.6-4.8,4.34-.72.64-3.46,3.82-3.46,3.82h0c-.71.69-2.37,1.4-3.55,1.99h0c-.76,1.32-.46,1.98-1.26,2.35-1.79,2.1-1.13,1.59-3.53,2.45,0,0,.36,1.88-1.25,2.34-.64-.72-3.94,3.39-3.94,3.39,0,0-3.87,3.38-3.94,3.39,0,0-2.5,5.02-8.31,8.41-2.07,3.12-2.76,3.76-6.54,5.08l-8.44,4.52-7.6,5.5c-7.6,3.48-15.5,7.04-28.24,7.66-3.16.61-10.29-2.23-11.51-2.17-8.24.97-11.04-2.69-16.93-7.29-16.54-18.27,8.17-86.33,6.32-76.73-13.37,7.61-23.59,25.58-36.08,34.65-2.98,6.75-9.84,8.37-16.45,18.15-8.13,7.17-15.69,15.68-27.46,18.69-12.42,12.49-20.67,5.56-24.45,5-8.57-.86-10.3-6.8-14.61-8.1-11.19-15.33,2.25-37.3,5.3-53.44,9.31-23.6,22.43-46.21,36.02-64.56l-12.01,6c-13.87,10.3-32.34,15.8-56.34,47.3-7.46,9.79-7.75,8.65-14.76,18.02-3.46,3.56-3.53,8.06-9.37,16.99l-7.76,11.23-8.06,10.08c-12.21,12.72-12.18,11.24-17.64,19.15,0,0-2.02,4.03-9.08,2.43-2.29-1.39-2.96-4.76-4.94-6.04-9.59-6.21-9.38-12.22-9.38-12.22-.47-1.3-.24-3.88-.9-5.16-.79-2.89,1.19-8.83,2.77-9.89,1.53-3.56,1.79-3.34,1.79-3.34-1.34-7.41,3.7-10.5,4.6-12.25,6.63-3.9,11.58-12.05,16.54-17.93,4.63-8.68,6.31-13.88,9.69-23.07-.66-1.09,2.52-12.3-3-9-42.98,46.54-73.38,85.39-94.93,105.98-4.41,5.57-25.07,27.52-29.57,15.52-2.98-.48-29.82-14.41-12.09-44.7,13.48-23.04,36.7-51.88,56.14-68.43l37.61-28.35c2.79-3.9,16.91-10.3,19.7-12-4.46.97,11.39-2.62,15.69-1.52,5.14-2.32,15,2.65,19.54.54,4.64-.17,10.75-1.48,14.37,2.3,5.26,2.26,3.3,1.69,8.42,3.14,9.22-10.96,21.6-14.53,36.98-26.38.9-2.3,10.08-6.88,13.93-6.69,2.19,3.46,8.62-7.93,13.15-7.4,5.61-1.03,7.43-4.68,13.19-6.65,5.81-4.04,15.94-9.36,23.76-6.54l13.69,4.51Z"/>
  <g>
    <polygon class="cls-3" points="169.68 204.56 156.32 204.56 156.33 282.28 169.71 282.28 169.68 204.56"/>
    <path class="cls-3" d="M134.2,211.28h4.53v12.35h-7.5c.13-1.85.1-2.94.1-2.94l.08-8.06h-34.44v6.89h22.96c.31,33.88-26.79,43.63-26.79,43.63l1.53,3.83c24.39-4.61,32.57-22.67,35.3-34.83h8.77v9.97h-10.31v7.2h10.31v32.97h13.01l.23-77.68h-17.78s.01,6.68.01,6.68Z"/>
  </g>
  <path class="cls-3" d="M315,209.8h-17.66v6.82h3.21l-.14,7.48s.59,21.01-18.72,34.27l4.01,4.02s15.5-5.69,21.28-17.66c0,0,5.8,12.17,20.06,17.56l3.61-5.62s-15.02-10.76-15.78-33.14l.14-13.71Z"/>
  <polygon class="cls-3" points="338.01 204.63 357.08 204.64 357.08 282.62 342.82 282.62 342.82 211.66 338.02 211.66 338.01 204.63"/>
  <g>
    <path class="cls-3" d="M252.62,239.95v-4.92h10.22v-7.23h-46.62v-3.34h46.22v-18.76h-63.53v7.63h49.31v3.74h-49.14v7.35h2.88v10.6h10.57v4.92h-20.53v7.03h77.77v-7.03h-17.15ZM226.22,235.03h12.82v4.92h-12.82v-4.92Z"/>
    <path class="cls-3" d="M231.25,249.39c-17.31,0-31.35,7.46-31.35,16.67s14.04,16.68,31.35,16.68,31.34-7.47,31.34-16.68-14.04-16.67-31.34-16.67ZM231.5,275.46c-8.97.01-17.1-4.44-17.14-9.37-.04-4.56,7.71-9.44,16.96-9.41,8.27.03,17.11,4.31,16.86,9.41-.25,5.32-8.27,9.35-16.68,9.37Z"/>
  </g>
  <path class="cls-1" d="M68.65,306.5l-6.95.99h-5.96l-4.22,4.41-.42,9.22s4.5,10.25,7.52,13.16c0,0-.97-.45,11.66,3.43,0,0,11.39,3.88,33.12,1.95l15.74,1.2,11.23-1.2s22.54.3,27.12-.32l6.29-.63,5.83-1.08,3.35-.1,3.97-.66,2.29-.02,4.57-.62,4.45-.22,4.12.41,2.84-.92h4.26s7.1,0,7.1,0h4.26l1.89.46,5.21-.46h4.73s4.26-.46,4.26-.46l6.15-.46,4.54-.02,4-.61,5.66.17h5.21l3.45-.88,3.43-.04,5.72-.06,4.57-1.19,4.57-.62,5.22.46h2.84l2.81-1.14,3.44-.04,2.29-.02,3.43-.61,7.38-1.01,4.67-.67,5.1-.77,4.58-.05,4.16.61,6.71-1.29,4.01.53,4.58-.04,3.62-.35,4.22-1.31,5.88-.77,3.43-.61,5.14-1.2,2.75.03,6.54-.69,4.53-1.56,5.36-.65,4.48-1.98h2.47l5.94-1.48,4.95-.99,2.75.14,12.72-3.91,2.46-2.1-3.16-2.46-7.02.35-3.16-.7-3.86.35-3.86-1.05h-8.07l-6.31-.35-8.84.42-9.4-.42-6.32.82-5.04-.11-2.87.6-2.47-.5-3.69.56-3.2-.92-4.98.36-3.49-.12-4.64-.35-2.8.34-1.53-1.04-3.79,1-2.17-.29-4.12.17-5.96-.99h-8.93l-2.39.12h-2.1l-3.86.35-4.36.68-7.45-.5-5.15.05-8.24.34-3.91-.92h-3.16l-5.26,1.12-4.62-.28-5.55-.13-3.86-.35h-5.61l-3-.18h-3.79s-3.21,1.05-3.21,1.05l-2.84-.46-6.62-.46s-11-1.32-19.4,0c0,0-26.3.22-36.91-.91,0,0-22.4-1.62-34.06-.93,0,0-20.58.87-27.44,0,0,0-20.12-.38-21.53,2.41Z"/>
  <path class="cls-1" d="M40.45,360.2l-7.51,1.47-7.32,1.66-1.37,5.83h0s-1.14,6.38,1.16,10.08l4.74,8.3,4.27,1.93s-2.86,1.7,6.62,6.29c0,0,17.14,7.85,45.19,6.06,0,0,22.6,2.33,34.78,1.59,0,0,31.93-.82,39.61-2.09,0,0,9.91-.26,14.31-.37,0,0,18.11-2.61,24.71-3.32,2.2-.06,5.99-2.84,10.39-2.95,0,0,11.51-2.44,17.59-1.53,0,0,14.79-3.06,19.81-1.05,0,0,10.5,1.34,15.97-.41l12.65-.87,6.58-1.24s9.85-2.4,13.72-1.96c0,0,10.46-.27,16.53.11,0,0,5.5-.14,12.1-.85,0,0,5.45-2.29,7.67-1.81,0,0,2.66.33,7.02-1.4l7.8-.6,3.86-.1c3.85-.1,1.64-.59,3.85-.1,1.28.29,16.41-4.36,6.37-1.72-2.71.71,2.98.95,2.98.95h0s2.41-1.88,5.16-1.95c2.75-.07,2.54,0,2.54,0l5.38.15,3.28-1.15s1.9-1.46,3.55-1.51c1.65-.04,1.53,0,1.53,0l4.58-1.01h4.58l7.12-1.51s8.38-.1,14.94-1.88c0,0,4.9-2.27,7.67-1.81l6.58-1.24,5.49-.68,4.93-1.2,6.04-.69,3.84-.63,11.58-5,6.64-4.53.33-2.91h-3.98s-5.97-.96-5.97-.96l-5.21-.98-4.41.66-4.82.46-7.72-.34-6.61.17-7.71.2-7.18-.89s-26.25.56-30.84.26l-11.04-.79-7.17-.35-7.71.2-5.49.68-6.17.05h-5.91s-7.17.98-7.17.98l-2.61.1-3.54-.74-6.78.2-13.06.82s-15.06.29-24.99,0l-10.94.64-3.59.66-3.19-.4h0l-5.45-.89.17.15-6.43-.29-6.01.14-3.63.45-4.54-.45-4.54.45-7.13.81-4.94.66-2.2.06-5.83-.61-11.28-.56s-16.59-1.18-28.14-.35c0,0-13.91.68-22.72.91h-6.82s-4.09-.45-4.09-.45h-5.45s-2.27,0-2.27,0l-6.36-.45s-4.72-.13-6.36.45c-1.64.58-6.82,0-6.82,0l-5.45.45-5.91.45-10.91-.45-12.72.45s-15.3,1.2-21.36,1.35c0,0-13.74,2.64-18.79,2.71Z"/>
</svg>