<?xml version="1.0" encoding="UTF-8"?>
<svg xmlns="http://www.w3.org/2000/svg" xmlns:xlink="http://www.w3.org/1999/xlink" viewBox="0 0 1600 400">
  <defs>
    <style>
      .cls-1 {
        fill: url(#_무제_그라디언트_214);
      }

      .cls-2 {
        mix-blend-mode: soft-light;
      }

      .cls-3 {
        fill: none;
      }

      .cls-4 {
        fill: url(#linear-gradient-2);
      }

      .cls-4, .cls-5, .cls-6 {
        opacity: .82;
      }

      .cls-5 {
        fill: url(#linear-gradient-3);
      }

      .cls-7 {
        clip-path: url(#clippath-1);
      }

      .cls-8 {
        isolation: isolate;
      }

      .cls-6 {
        fill: url(#linear-gradient);
      }

      .cls-9 {
        clip-path: url(#clippath);
      }
    </style>
    <clipPath id="clippath">
      <rect class="cls-3" width="1600" height="400"/>
    </clipPath>
    <clipPath id="clippath-1">
      <rect class="cls-3" x="-2.24" y="-321.68" width="1602.24" height="1025.62" rx="12.27" ry="12.27"/>
    </clipPath>
    <linearGradient id="_무제_그라디언트_214" data-name="무제 그라디언트 214" x1="819.37" y1="613.67" x2="778.38" y2="-318.96" gradientUnits="userSpaceOnUse">
      <stop offset=".21" stop-color="#f8f4f8"/>
      <stop offset=".28" stop-color="#f0f2f7"/>
      <stop offset=".39" stop-color="#dcecf6"/>
      <stop offset=".51" stop-color="#bce4f3"/>
      <stop offset=".66" stop-color="#8fd8f0"/>
      <stop offset=".72" stop-color="#7ad3ef"/>
    </linearGradient>
    <linearGradient id="linear-gradient" x1="191.72" y1="148.81" x2="190.37" y2="32.38" gradientUnits="userSpaceOnUse">
      <stop offset="0" stop-color="#fff" stop-opacity="0"/>
      <stop offset=".03" stop-color="#fffcf5" stop-opacity=".08"/>
      <stop offset=".1" stop-color="#fff8de" stop-opacity=".27"/>
      <stop offset=".17" stop-color="#fff3ca" stop-opacity=".45"/>
      <stop offset=".25" stop-color="#fff0b8" stop-opacity=".6"/>
      <stop offset=".33" stop-color="#ffeca9" stop-opacity=".72"/>
      <stop offset=".42" stop-color="#ffea9d" stop-opacity=".82"/>
      <stop offset=".52" stop-color="#ffe894" stop-opacity=".9"/>
      <stop offset=".63" stop-color="#ffe78d" stop-opacity=".96"/>
      <stop offset=".77" stop-color="#ffe68a" stop-opacity=".99"/>
      <stop offset="1" stop-color="#ffe689"/>
    </linearGradient>
    <linearGradient id="linear-gradient-2" x1="1465.85" y1="96.43" x2="1465.85" y2="-33.14" xlink:href="#linear-gradient"/>
    <linearGradient id="linear-gradient-3" x1="891.41" y1="265.09" x2="891.41" y2="160.19" xlink:href="#linear-gradient"/>
  </defs>
  <g class="cls-8">
    <g id="_레이어_1" data-name="레이어 1">
      <g class="cls-9">
        <g class="cls-7">
          <rect class="cls-1" x="-.26" y="-320.34" width="1602.24" height="1025.62" rx="12.27" ry="12.27"/>
          <g class="cls-2">
            <path class="cls-6" d="M-47.01,147.47h477.43c-38.91-5.21-76.42-15.52-109.79-36-14.73-9.04-33.32-20.13-47.7-10.53-9.3,6.21-13.61,19.87-24.61,21.9-11.79,2.17-20.4-10.65-25.06-21.7-4.65-11.05-11.63-24.29-23.62-24.11-10.78.16-18.06,11.54-28.43,14.53-14.54,4.19-28.42-9.74-33.19-24.1-4.77-14.36-25.74-39.37-55.3-39.37-43.2,0-50.2,37.27-67.95,47.93-23.06,13.85-39.64-8.01-61.77-12.41v83.86Z"/>
            <path class="cls-4" d="M1630.35-32.56c-.07,0-.13-.03-.2-.03-18.89-2.66-38.9,4.51-51.8,18.57-5.4,5.88-10.14,13.23-17.79,15.5-14.13,4.19-27.4-11.45-42.09-10.37-25.96,1.91-29.02,49.69-55.05,50.06-9.58.14-17.69-6.92-27-9.19-14.44-3.52-29.2,5.06-39.62,15.67-10.41,10.61-18.46,23.59-30.15,32.76-11.7,9.17-26.42,6.15-41.23,4.91-28.06-2.34-6.72-1.02-24.07,9.06h329V-32.56Z"/>
            <path class="cls-5" d="M750.4,205.35c7.03-8.19,19.1-13.12,28.92-8.63,6.53,2.99,11.11,9.57,17.99,11.63,8.1,2.42,16.77-2.31,22.41-8.6,5.64-6.29,9.32-14.1,14.66-20.65,9.98-12.25,25.88-19.44,41.67-18.86,15.79.58,31.11,8.92,40.17,21.87,6.92,9.89,11.85,23.4,23.61,26.1,14.94,3.44,27.42-13.74,42.74-14.3,11.3-.41,21.05,8.61,25.93,18.81,2.83,5.92,4.93,12.91,10.63,16.16,10.61,6.05,22.79-5.44,34.97-6.38,11.45-.88,21.15,7.6,30.44,14.34,17.96,13.03,39.45,21.12,61.54,23.17-20.39,1.52-40.72,4.57-61.16,4.57h-448.15c-.99,3.69,17.15-13.05,28.81-19.55,11.66-6.49,25.69-8.64,38.76-5.92,10.86,2.26,23.85,6.07,31.92-4.43,6.57-8.55,6.69-20.66,14.13-29.32Z"/>
          </g>
        </g>
      </g>
    </g>
  </g>
</svg>