<?xml version="1.0" encoding="UTF-8"?>
<svg id="_레이어_1" data-name="레이어 1" xmlns="http://www.w3.org/2000/svg" xmlns:xlink="http://www.w3.org/1999/xlink" viewBox="0 0 1600 400">
  <defs>
    <style>
      .cls-1 {
        fill: url(#_무제_그라디언트_221);
      }

      .cls-2 {
        fill: url(#_무제_그라디언트_252);
      }

      .cls-3 {
        fill: url(#_무제_그라디언트_214);
      }

      .cls-4 {
        fill: url(#_무제_그라디언트_231);
      }

      .cls-5 {
        fill: url(#_무제_그라디언트_245);
      }

      .cls-6 {
        fill: none;
      }

      .cls-7 {
        clip-path: url(#clippath-1);
      }

      .cls-8 {
        clip-path: url(#clippath-2);
      }

      .cls-9 {
        clip-path: url(#clippath);
      }

      .cls-10 {
        fill: url(#_무제_그라디언트_239);
      }

      .cls-11 {
        fill: url(#_무제_그라디언트_258);
      }
    </style>
    <clipPath id="clippath">
      <rect class="cls-6" y="-576" width="1600" height="400"/>
    </clipPath>
    <clipPath id="clippath-1">
      <rect class="cls-6" x="-2.24" y="-897.68" width="1602.24" height="1025.62" rx="12.27" ry="12.27"/>
    </clipPath>
    <linearGradient id="_무제_그라디언트_214" data-name="무제 그라디언트 214" x1="819.37" y1="37.67" x2="778.38" y2="-894.96" gradientUnits="userSpaceOnUse">
      <stop offset=".21" stop-color="#f8f4f8"/>
      <stop offset=".28" stop-color="#f0f2f7"/>
      <stop offset=".39" stop-color="#dcecf6"/>
      <stop offset=".51" stop-color="#bce4f3"/>
      <stop offset=".66" stop-color="#8fd8f0"/>
      <stop offset=".72" stop-color="#7ad3ef"/>
    </linearGradient>
    <clipPath id="clippath-2">
      <rect class="cls-6" width="1600" height="400"/>
    </clipPath>
    <linearGradient id="_무제_그라디언트_239" data-name="무제 그라디언트 239" x1="579.29" y1="646.85" x2="579.29" y2="101.75" gradientUnits="userSpaceOnUse">
      <stop offset="0" stop-color="#c9fce9"/>
      <stop offset=".67" stop-color="#91c9a5"/>
      <stop offset="1" stop-color="#7ab58a"/>
    </linearGradient>
    <linearGradient id="_무제_그라디언트_231" data-name="무제 그라디언트 231" x1="1051.54" y1="602.55" x2="1051.54" y2="109.22" gradientUnits="userSpaceOnUse">
      <stop offset="0" stop-color="#c9fce9"/>
      <stop offset=".04" stop-color="#c4f7e4"/>
      <stop offset=".7" stop-color="#7db19f"/>
      <stop offset="1" stop-color="#629684"/>
    </linearGradient>
    <linearGradient id="_무제_그라디언트_221" data-name="무제 그라디언트 221" x1="851.72" y1="725.56" x2="814.28" y2="269.48" gradientUnits="userSpaceOnUse">
      <stop offset="0" stop-color="#c9fce9"/>
      <stop offset=".02" stop-color="#c7fae6"/>
      <stop offset=".69" stop-color="#a0d79f"/>
      <stop offset="1" stop-color="#91ca84"/>
    </linearGradient>
    <linearGradient id="_무제_그라디언트_245" data-name="무제 그라디언트 245" x1="700.89" y1="612.93" x2="739.6" y2="295.51" gradientUnits="userSpaceOnUse">
      <stop offset="0" stop-color="#c9fce9"/>
      <stop offset=".15" stop-color="#b9eed6"/>
      <stop offset=".53" stop-color="#97cfad"/>
      <stop offset=".82" stop-color="#81bc93"/>
      <stop offset="1" stop-color="#7ab58a"/>
    </linearGradient>
    <linearGradient id="_무제_그라디언트_252" data-name="무제 그라디언트 252" x1="268.41" y1="599.81" x2="305.93" y2="374.71" gradientUnits="userSpaceOnUse">
      <stop offset="0" stop-color="#c9fce9"/>
      <stop offset=".21" stop-color="#b8ebd8"/>
      <stop offset=".63" stop-color="#8dc1ae"/>
      <stop offset="1" stop-color="#629684"/>
    </linearGradient>
    <linearGradient id="_무제_그라디언트_258" data-name="무제 그라디언트 258" x1="1268.38" y1="747.98" x2="1227.45" y2="389.86" gradientUnits="userSpaceOnUse">
      <stop offset="0" stop-color="#c9fce9"/>
      <stop offset=".23" stop-color="#bbefd8"/>
      <stop offset=".67" stop-color="#97cfad"/>
      <stop offset="1" stop-color="#7ab58a"/>
    </linearGradient>
  </defs>
  <g class="cls-9">
    <g class="cls-7">
      <rect class="cls-3" x="-.26" y="-896.34" width="1602.24" height="1025.62" rx="12.27" ry="12.27"/>
    </g>
  </g>
  <g class="cls-8">
    <g>
      <path class="cls-10" d="M-47.01,646.85h1252.6c-17.49-5.71-34.58-12.91-52.25-18.38-44.38-13.73-90.24-19.94-134.06-35.64-46.69-16.73-90.86-36.24-138.19-42.5-58.91-7.79-100.23-15.89-146.37-57.33-25.13-22.58-52.9-36.57-81.97-55.18-30.76-19.7-67.18-59.47-98.75-72.03-21.83-8.69-36.28-21.23-59.07-32.34-33.41-16.3-66.35-25.82-88.68-54.57-15.18-19.55-62.32-60.65-86.62-75.71-24.3-15.06-39.57.67-80.5-9.56-31.63-24.12-49.3-27.96-85.84-46.24-17.19-8.6-37.24-21.47-53.51-36.63C61.15,74.73-.68,156.58-43.28,185.44c-1.27.86-2.48,1.78-3.73,2.65v458.76Z"/>
      <path class="cls-4" d="M1630.35,161.69c-6.57-8.16-13.21-16.34-20.69-23.79-11.47-11.42-36.87-6.4-45.48-11.37-21.11-12.17-24.34-20.83-48.89-15.92-17.05,3.41-58.05,35.72-87.83,65.72-32.49,32.72-50.87,37.74-78.15,58.2-8.54,6.4-24.82,9.95-31.83,3.41-21.04-19.63-44.34-28.42-80.34-.33-55.97,43.67-142.69,78.9-203.77,154.12-35.64,43.88-141.09,32.83-186.75,51.42-59.72,24.32-116.55,67.1-175.69,93.09-53.9,23.69-138.46,26.62-198.22,66.3h1157.64V161.69Z"/>
      <path class="cls-1" d="M1630.35,742.38v-408.86c-3.47-3.57-6.77-7.02-9.84-10.3-19.56-20.84-79.82-38.54-100.92-58.84-18.76-18.05-48.41-51.16-73.92-51.16-22.64,0-29.11,11.21-51.16,26.23-27.78,18.93-70.25,44.21-88.3,64.08-30.72,33.81-40.45,6.04-77.97,23.1-17.67,8.03-36.22,20.04-57.98,13.64-57.98-17.05-96.84-58.1-133.02-40.93-17.45,8.28-43.49,29.77-61.19,31.05-28.04,2.03-27.58,32.42-55.55,42.96-34.77,13.11-36.02-5.22-67.44,14.66-71.62,45.33-102.32,20.79-170.53,68.21-26.84,18.66-54.25,19.31-85.27,27.29-14.07,3.62-77.39-12.49-92.09-10.23-33.7,5.17-156.86,29.08-187.59,40.93-17.1,6.6-204.48,19.38-218.28,30.7-47.76,39.18-42.83,150.61-57.03,197.48h1588.08Z"/>
      <path class="cls-5" d="M1422.9,448.31c-8.27-4.85-120.57-10.33-130.82-13.15-18.41-5.08-92.23-15.32-112.42-17.53-8.81-.97-46.76,5.93-55.19,4.38-18.59-3.42-26.81,31.98-42.9,23.99-40.88-20.32-67.48-45.48-110.4-64.9-18.83-8.52-19.58-.66-40.42-6.28-16.76-4.52-16.49-17.53-33.29-18.41-10.6-.55-26.21-9.76-36.67-13.3-21.68-7.36-44.97,10.23-79.72,17.53-13.04,2.74-24.16-2.4-34.75-5.84-22.48-7.31-28.32,4.59-46.73-9.9-10.82-8.51-36.27-25.1-52.92-33.21-13.22-6.44-17.09-5.48-30.66-5.48-15.29,0-36.28,14.19-47.52,21.92-12.65,8.7-45.54,16.28-57.26,25.21-22.85,17.4-65.1,46.02-98.16,48.29-11.71.81-20.44-2.3-32.26.33-13.09,2.9-26.01,11.84-37.05,17.79-34.26,18.47-64.39,34.51-100.29,49.82-14.95,6.38-29.68,17.49-45.28,22.3-17.01,5.24-18-.98-32.5-2.58-11.19-1.23-22.1,4.02-31.78,6.78-19.45,5.56-53.04,9.49-66.28,19.55-53.8,5.25-80.67,12.86-106.68,17.55-2.64.48-5.3,1-7.97,1.56v13.53h1349.9c54.61-3.42,109.33-5.97,164.09-6.29-22.17-1.79-7.91-72.43-44.08-93.64Z"/>
      <path class="cls-2" d="M-47.01,535.04h693.28c-21.21-5.85-42.6-12.47-63.05-16.39-26.61-5.09-54.11-13.36-109.17-19.06-13.55-10.93-47.92-15.2-67.83-21.24-9.91-3-21.08-8.71-32.53-7.37-14.84,1.74-15.86,8.5-33.26,2.81-15.96-5.22-31.04-17.29-46.34-24.22-36.74-16.63-67.58-34.06-102.64-54.12-11.29-6.46-24.52-16.17-37.91-19.32-12.09-2.85-21.02.52-33.01-.35-33.84-2.47-77.07-33.56-100.45-52.46-11.99-9.7-45.66-17.93-58.6-27.38-2.43-1.77-5.32-3.87-8.49-6.05v245.17Z"/>
      <path class="cls-11" d="M1630.35,355.03c-4.52.45-8.71,1.74-15.57,5.29-15.65,8.09-39.59,24.65-49.76,33.15-17.31,14.46-22.8,2.58-43.94,9.88-9.96,3.44-20.41,8.57-32.67,5.83-32.67-7.29-54.57-24.84-74.96-17.5-9.83,3.54-24.51,12.73-34.48,13.28-15.8.87-15.54,13.86-31.3,18.37-19.6,5.61-20.3-2.23-38,6.27-40.36,19.38-57.66,8.89-96.1,29.17-15.12,7.98-30.57,8.26-48.05,11.67-7.93,1.55-43.61-5.34-51.89-4.38-18.99,2.21-98.35,56.44-115.66,61.51-9.64,2.82-72.62,27.67-80.39,32.51-34.01,21.17-53.27,28.29-74.11,30.08,51.49.32,102.95,2.86,154.29,6.27h632.6v-241.4Z"/>
    </g>
  </g>
</svg>